<?xml version="1.0" encoding="UTF-8" standalone="no"?>
<svg viewBox="0 0 46 46" version="1.1" xmlns="http://www.w3.org/2000/svg">
    <g stroke="none" stroke-width="1" fill="none" fill-rule="evenodd">
        <path d="M31.64,23.205c0,-0.639 -0.057,-1.252 -0.164,-1.841l-13.476,0l0,3.481l7.704,0c-0.332,1.789 -1.342,3.306 -2.859,4.321l0,3.59l4.629,0c2.709,-2.492 4.166,-6.16 4.166,-9.551Z" fill="#4285F4"/>
        <path d="M18,32c3.86,0 7.098,-1.281 9.464,-3.474l-4.629,-3.59c-1.283,0.859 -2.924,1.367 -4.835,1.367c-3.724,0 -6.878,-2.514 -8.002,-5.893l-4.784,0l0,3.708c2.35,4.664 7.189,7.882 12.786,7.882Z" fill="#34A853"/>
        <path d="M9.998,20.41c-0.286,-0.858 -0.448,-1.774 -0.448,-2.72c0,-0.946 0.162,-1.862 0.448,-2.72l0,-3.708l-4.784,0c-0.972,1.936 -1.524,4.115 -1.524,6.428c0,2.313 0.552,4.492 1.524,6.428l4.784,-3.708Z" fill="#FBBC05"/>
        <path d="M18,9.077c2.099,0 3.981,0.721 5.465,2.138l4.108,-4.108c-2.475,-2.307 -5.713,-3.724 -9.573,-3.724c-5.597,0 -10.436,3.218 -12.786,7.882l4.784,3.708c1.124,-3.379 4.278,-5.896 8.002,-5.896Z" fill="#EA4335"/>
    </g>
</svg> 